<svg version="1.1" id="Layer_1" xmlns="http://www.w3.org/2000/svg" xmlns:xlink="http://www.w3.org/1999/xlink" x="0px" y="0px"
	 width="100%" viewBox="0 0 512 512" enable-background="new 0 0 512 512" xml:space="preserve">
<path fill="#000000" opacity="0.000000" stroke="none" 
	d="
M282.000000,513.000000 
	C188.022812,513.000000 94.545624,513.000000 1.034216,513.000000 
	C1.034216,342.397797 1.034216,171.795563 1.034216,1.096670 
	C171.560532,1.096670 342.121155,1.096670 512.840881,1.096670 
	C512.840881,171.666550 512.840881,342.333252 512.840881,513.000000 
	C436.128876,513.000000 359.314423,513.000000 282.000000,513.000000 
M273.020477,32.938118 
	C273.013702,50.746040 273.077087,68.554520 272.935089,86.361366 
	C272.909729,89.543533 274.156158,90.633987 277.089325,91.045189 
	C283.031372,91.878197 288.989807,92.742416 294.842285,94.040916 
	C323.006989,100.289879 347.671295,113.560860 369.033478,132.685776 
	C388.393433,150.018204 402.938080,171.010468 412.562653,195.199249 
	C417.962677,208.770767 421.955841,222.792374 422.937408,237.473175 
	C423.136047,240.443802 424.472229,241.077057 427.044525,241.027267 
	C434.029205,240.891998 441.016541,240.890625 448.928833,240.980240 
	C462.211853,240.980240 475.494904,240.980240 488.802032,240.980240 
	C480.705048,114.243668 373.340332,28.731731 273.166718,25.588629 
	C273.166718,27.731043 273.166718,29.871778 273.020477,32.938118 
M245.910751,376.985657 
	C255.329391,376.659088 264.759277,376.520905 274.163940,375.959747 
	C286.799683,375.205750 298.602600,370.991577 309.787476,365.515350 
	C325.494232,357.825134 338.877899,347.089813 350.193481,333.512970 
	C365.415497,315.248993 374.392944,294.252777 376.739532,271.019348 
	C379.413239,244.547409 375.116821,218.916519 360.956207,195.678696 
	C345.640900,170.546066 324.269928,152.874344 296.452454,142.943008 
	C279.372803,136.845291 261.778992,136.377701 243.166656,137.028198 
	C239.845749,137.683701 236.535065,138.397278 233.202255,138.985245 
	C211.758057,142.768402 193.061081,152.373978 176.951065,166.710876 
	C163.294098,178.864716 152.695206,193.377151 145.742950,210.543106 
	C134.708633,237.788147 133.716904,265.451843 142.100281,293.343658 
	C148.964050,316.179657 162.083405,335.026703 180.619049,350.225037 
	C199.444077,365.660614 220.865982,374.400757 245.910751,376.985657 
M237.504059,488.957916 
	C237.670807,488.913452 237.837555,488.869019 238.791656,488.937256 
	C239.849289,488.898773 240.906937,488.860321 242.894791,488.984741 
	C261.401215,489.118286 279.939331,489.680206 298.228149,485.983307 
	C315.828583,482.425568 332.969879,477.532959 349.541595,470.351624 
	C372.410004,460.441650 393.346436,447.518921 411.526550,430.667725 
	C423.027008,420.007935 433.517792,408.097443 443.392853,395.883942 
	C457.528351,378.401031 468.036133,358.582214 475.154572,337.291901 
	C479.980133,322.859344 483.383728,307.919891 486.810699,293.065826 
	C488.285339,286.674194 488.209106,279.924835 488.854614,273.158173 
	C474.908234,273.158173 461.444794,273.158173 447.054901,273.024536 
	C440.389587,273.016754 433.716492,272.838165 427.065216,273.139984 
	C425.672028,273.203186 423.616089,274.784424 423.167450,276.107605 
	C422.293152,278.686066 422.412750,281.587891 421.992310,284.336182 
	C419.893585,298.055084 416.324707,311.394073 410.450623,323.971436 
	C403.531799,338.785858 395.408722,352.791748 384.479095,365.248535 
	C373.753082,377.473236 362.264343,388.733246 348.351959,397.016144 
	C337.501740,403.475952 326.005890,408.976746 314.421356,414.045319 
	C300.753265,420.025543 286.050568,422.799713 271.280273,423.779785 
	C259.740570,424.545563 248.034286,423.791901 236.465698,422.893433 
	C220.119659,421.623871 204.312531,417.360931 189.696579,410.056274 
	C175.798264,403.110260 162.586288,394.790924 149.709778,387.439270 
	C135.036713,402.101044 119.761665,417.364319 104.293114,432.820953 
	C112.460312,438.995514 120.516655,446.364105 129.731461,451.751099 
	C143.307968,459.687988 157.453369,466.790497 171.831924,473.178070 
	C186.538666,479.711487 202.106949,483.882294 218.143600,486.027405 
	C224.441696,486.869904 230.714874,487.898590 237.504059,488.957916 
M182.317734,36.917618 
	C163.107483,42.986252 145.272385,51.964207 128.538025,63.050461 
	C107.322021,77.105721 88.852875,94.231544 73.193382,114.326057 
	C59.483273,131.919098 48.810806,151.226624 40.508949,171.915939 
	C32.135075,192.784698 26.695621,214.519363 25.349867,236.781403 
	C24.168692,256.320862 24.252529,276.009308 27.737490,295.641998 
	C31.552107,317.131805 37.927006,337.620483 47.128082,357.251007 
	C56.142639,376.483521 67.790642,394.082367 81.298340,409.277374 
	C96.726593,393.883759 112.099472,378.545410 127.554665,363.124908 
	C117.806435,351.895142 110.347198,338.552429 103.866524,324.568665 
	C96.108551,307.828796 91.457657,290.156189 90.195770,271.921997 
	C88.412979,246.160812 91.068329,220.824539 100.926018,196.511673 
	C108.992027,176.617783 119.973251,158.666351 134.574051,142.992599 
	C145.807617,130.933502 158.641464,120.863205 172.917542,112.495392 
	C192.601364,100.957870 213.613831,93.636475 236.255035,91.061333 
	C239.642654,90.676041 241.111603,89.679276 241.078491,85.953606 
	C240.908249,66.792358 241.005402,47.628788 240.983047,28.466061 
	C240.981750,27.357700 240.750259,26.249613 240.627655,25.157070 
	C220.756866,26.524967 201.666672,30.405487 182.317734,36.917618 
z"/>
<path fill="#336b87" opacity="1.000000" stroke="none" 
	d="
M182.666397,36.711315 
	C201.666672,30.405487 220.756866,26.524967 240.627655,25.157070 
	C240.750259,26.249613 240.981750,27.357700 240.983047,28.466061 
	C241.005402,47.628788 240.908249,66.792358 241.078491,85.953606 
	C241.111603,89.679276 239.642654,90.676041 236.255035,91.061333 
	C213.613831,93.636475 192.601364,100.957870 172.917542,112.495392 
	C158.641464,120.863205 145.807617,130.933502 134.574051,142.992599 
	C119.973251,158.666351 108.992027,176.617783 100.926018,196.511673 
	C91.068329,220.824539 88.412979,246.160812 90.195770,271.921997 
	C91.457657,290.156189 96.108551,307.828796 103.866524,324.568665 
	C110.347198,338.552429 117.806435,351.895142 127.554665,363.124908 
	C112.099472,378.545410 96.726593,393.883759 81.298340,409.277374 
	C67.790642,394.082367 56.142639,376.483521 47.128082,357.251007 
	C37.927006,337.620483 31.552107,317.131805 27.737490,295.641998 
	C24.252529,276.009308 24.168692,256.320862 25.349867,236.781403 
	C26.695621,214.519363 32.135075,192.784698 40.508949,171.915939 
	C48.810806,151.226624 59.483273,131.919098 73.193382,114.326057 
	C88.852875,94.231544 107.322021,77.105721 128.538025,63.050461 
	C145.272385,51.964207 163.107483,42.986252 182.666397,36.711315 
z"/>
<path fill="#763626" opacity="1.000000" stroke="none" 
	d="
M241.964569,488.821899 
	C240.906937,488.860321 239.849289,488.898773 238.289734,488.773682 
	C237.469620,488.485443 237.206818,488.562927 236.999390,488.842468 
	C230.714874,487.898590 224.441696,486.869904 218.143600,486.027405 
	C202.106949,483.882294 186.538666,479.711487 171.831924,473.178070 
	C157.453369,466.790497 143.307968,459.687988 129.731461,451.751099 
	C120.516655,446.364105 112.460312,438.995514 104.293114,432.820953 
	C119.761665,417.364319 135.036713,402.101044 149.709778,387.439270 
	C162.586288,394.790924 175.798264,403.110260 189.696579,410.056274 
	C204.312531,417.360931 220.119659,421.623871 236.465698,422.893433 
	C248.034286,423.791901 259.740570,424.545563 271.280273,423.779785 
	C286.050568,422.799713 300.753265,420.025543 314.421356,414.045319 
	C326.005890,408.976746 337.501740,403.475952 348.351959,397.016144 
	C362.264343,388.733246 373.753082,377.473236 384.479095,365.248535 
	C395.408722,352.791748 403.531799,338.785858 410.450623,323.971436 
	C416.324707,311.394073 419.893585,298.055084 421.992310,284.336182 
	C422.412750,281.587891 422.293152,278.686066 423.167450,276.107605 
	C423.616089,274.784424 425.672028,273.203186 427.065216,273.139984 
	C433.716492,272.838165 440.389587,273.016754 447.524384,273.533875 
	C447.682281,277.507843 447.407410,280.976227 447.053253,284.436462 
	C444.331421,311.029388 436.694824,336.247314 424.840546,360.095551 
	C410.313599,389.320679 390.380035,414.427917 365.229279,435.298981 
	C330.281250,464.300262 290.291351,481.636078 245.165344,487.083069 
	C244.044785,487.218353 243.029144,488.222778 241.964569,488.821899 
z"/>
<path fill="#FFD54F" opacity="1.000000" stroke="none" 
	d="
M244.981354,376.831940 
	C220.865982,374.400757 199.444077,365.660614 180.619049,350.225037 
	C162.083405,335.026703 148.964050,316.179657 142.100281,293.343658 
	C133.716904,265.451843 134.708633,237.788147 145.742950,210.543106 
	C152.695206,193.377151 163.294098,178.864716 176.951065,166.710876 
	C193.061081,152.373978 211.758057,142.768402 233.202255,138.985245 
	C236.535065,138.397278 239.845749,137.683701 243.717819,137.430756 
	C245.941910,138.416397 247.576385,139.169708 249.293411,139.557602 
	C289.334045,148.603210 317.874817,171.903702 334.898773,209.130966 
	C337.757141,215.381439 339.018341,222.362289 340.777283,228.752380 
	C334.164642,212.485779 325.219940,198.313812 311.253113,187.769379 
	C299.553772,178.936829 287.015900,172.030777 271.685181,170.732117 
	C249.948822,166.272247 230.157074,170.769440 211.549377,181.707108 
	C180.407349,200.012527 163.006180,238.252304 170.647766,273.203796 
	C179.020477,311.499359 202.775238,334.968506 241.014771,343.421112 
	C251.232727,345.679749 261.708496,346.542542 272.415222,343.024811 
	C293.856476,340.343719 310.781342,329.910492 323.761932,313.832611 
	C330.730103,305.201813 335.343109,294.669525 341.019135,285.409302 
	C340.909149,286.978577 340.984344,288.188721 340.661011,289.280914 
	C335.247101,307.570190 326.388611,323.987305 313.425537,338.020905 
	C296.122131,356.753235 275.012848,368.941071 249.990463,374.272797 
	C248.219406,374.650177 246.646423,375.957184 244.981354,376.831940 
z"/>
<path fill="#90afc5" opacity="1.000000" stroke="none" 
	d="
M448.002808,240.836166 
	C441.016541,240.890625 434.029205,240.891998 427.044525,241.027267 
	C424.472229,241.077057 423.136047,240.443802 422.937408,237.473175 
	C421.955841,222.792374 417.962677,208.770767 412.562653,195.199249 
	C402.938080,171.010468 388.393433,150.018204 369.033478,132.685776 
	C347.671295,113.560860 323.006989,100.289879 294.842285,94.040916 
	C288.989807,92.742416 283.031372,91.878197 277.089325,91.045189 
	C274.156158,90.633987 272.909729,89.543533 272.935089,86.361366 
	C273.077087,68.554520 273.013702,50.746040 273.473785,32.494102 
	C317.576630,43.564396 355.117493,65.226982 386.071198,98.385208 
	C405.850952,119.573692 421.253052,143.388748 432.041565,170.195908 
	C441.161011,192.855774 446.957001,216.323822 448.002808,240.836166 
z"/>
<path fill="#945242" opacity="1.000000" stroke="none" 
	d="
M242.429688,488.903320 
	C243.029144,488.222778 244.044785,487.218353 245.165344,487.083069 
	C290.291351,481.636078 330.281250,464.300262 365.229279,435.298981 
	C390.380035,414.427917 410.313599,389.320679 424.840546,360.095551 
	C436.694824,336.247314 444.331421,311.029388 447.053253,284.436462 
	C447.407410,280.976227 447.682281,277.507843 447.987610,273.600708 
	C461.444794,273.158173 474.908234,273.158173 488.854614,273.158173 
	C488.209106,279.924835 488.285339,286.674194 486.810699,293.065826 
	C483.383728,307.919891 479.980133,322.859344 475.154572,337.291901 
	C468.036133,358.582214 457.528351,378.401031 443.392853,395.883942 
	C433.517792,408.097443 423.027008,420.007935 411.526550,430.667725 
	C393.346436,447.518921 372.410004,460.441650 349.541595,470.351624 
	C332.969879,477.532959 315.828583,482.425568 298.228149,485.983307 
	C279.939331,489.680206 261.401215,489.118286 242.429688,488.903320 
z"/>
<path fill="#c1daec" opacity="1.000000" stroke="none" 
	d="
M448.465820,240.908203 
	C446.957001,216.323822 441.161011,192.855774 432.041565,170.195908 
	C421.253052,143.388748 405.850952,119.573692 386.071198,98.385208 
	C355.117493,65.226982 317.576630,43.564396 273.546906,32.031303 
	C273.166718,29.871778 273.166718,27.731043 273.166718,25.588629 
	C373.340332,28.731731 480.705048,114.243668 488.802032,240.980240 
	C475.494904,240.980240 462.211853,240.980240 448.465820,240.908203 
z"/>
<path fill="#FFCA29" opacity="1.000000" stroke="none" 
	d="
M245.446045,376.908813 
	C246.646423,375.957184 248.219406,374.650177 249.990463,374.272797 
	C275.012848,368.941071 296.122131,356.753235 313.425537,338.020905 
	C326.388611,323.987305 335.247101,307.570190 340.661011,289.280914 
	C340.984344,288.188721 340.909149,286.978577 341.008392,285.413116 
	C340.997375,285.002930 341.005280,285.020660 341.230164,284.778259 
	C341.633240,283.682068 341.811462,282.828247 342.000519,281.568298 
	C346.252258,264.782196 346.052856,248.403931 341.986206,231.692474 
	C341.654602,230.565262 341.329407,229.772720 341.000671,228.988983 
	C340.997162,228.997787 341.017517,229.005676 341.017517,229.005676 
	C339.018341,222.362289 337.757141,215.381439 334.898773,209.130966 
	C317.874817,171.903702 289.334045,148.603210 249.293411,139.557602 
	C247.576385,139.169708 245.941910,138.416397 244.132416,137.499939 
	C261.778992,136.377701 279.372803,136.845291 296.452454,142.943008 
	C324.269928,152.874344 345.640900,170.546066 360.956207,195.678696 
	C375.116821,218.916519 379.413239,244.547409 376.739532,271.019348 
	C374.392944,294.252777 365.415497,315.248993 350.193481,333.512970 
	C338.877899,347.089813 325.494232,357.825134 309.787476,365.515350 
	C298.602600,370.991577 286.799683,375.205750 274.163940,375.959747 
	C264.759277,376.520905 255.329391,376.659088 245.446045,376.908813 
z"/>
<path fill="#945242" opacity="1.000000" stroke="none" 
	d="
M237.251724,488.900208 
	C237.206818,488.562927 237.469620,488.485443 237.896057,488.717316 
	C237.837555,488.869019 237.670807,488.913452 237.251724,488.900208 
z"/>
<path fill="#FFB74D" opacity="1.000000" stroke="none" 
	d="
M341.992615,232.027130 
	C346.052856,248.403931 346.252258,264.782196 341.780640,281.814819 
	C341.368378,283.318512 341.186859,284.169586 341.005310,285.020660 
	C341.005280,285.020660 340.997375,285.002930 341.008118,284.999084 
	C335.343109,294.669525 330.730103,305.201813 323.761932,313.832611 
	C310.781342,329.910492 293.856476,340.343719 272.009338,343.016876 
	C233.693939,335.961792 202.921890,302.695221 201.132645,261.577393 
	C199.809280,231.166153 211.368881,206.018707 235.485123,187.211456 
	C246.198181,178.856781 258.195953,172.736008 271.984283,170.972534 
	C287.015900,172.030777 299.553772,178.936829 311.253113,187.769379 
	C325.219940,198.313812 334.164642,212.485779 340.777283,228.752380 
	C341.017517,229.005676 340.997162,228.997787 341.007751,229.322693 
	C341.343109,230.440781 341.667847,231.233948 341.992615,232.027130 
M241.379837,211.680923 
	C220.419952,222.470078 218.909561,247.637482 238.365051,260.963226 
	C243.574951,264.531647 249.333481,265.096008 255.392166,265.040253 
	C267.166748,264.931915 273.075745,269.102539 272.926697,277.120697 
	C272.776550,285.198608 267.093231,288.995209 255.151352,288.996002 
	C248.157318,288.996460 241.162537,288.935608 234.169479,289.018829 
	C228.632004,289.084686 225.147385,292.147461 225.037262,296.816986 
	C224.923096,301.658783 228.538055,304.898163 234.309830,304.986542 
	C239.071594,305.059479 243.835342,305.001434 249.052307,305.001434 
	C249.052307,308.374847 248.823212,311.036346 249.099426,313.644318 
	C249.696533,319.282318 254.690857,322.107208 259.979858,320.097229 
	C264.937134,318.213379 265.169678,314.013367 264.938751,309.801575 
	C264.750366,306.365204 265.583527,304.251892 269.239105,303.294800 
	C283.068787,299.674011 289.122070,286.946533 288.810638,277.052338 
	C288.406586,264.217010 282.344025,254.183838 268.924866,250.580139 
	C264.216370,249.315674 259.118225,249.530441 254.209305,248.970734 
	C252.115601,248.732010 249.834000,248.678558 248.013794,247.779587 
	C242.667450,245.139145 240.128311,239.808762 241.282608,234.596924 
	C242.545288,228.895615 247.275711,225.118835 253.659348,225.037247 
	C262.483734,224.924469 271.313293,225.130722 280.135345,224.947189 
	C285.640411,224.832672 289.059845,221.457794 288.961426,216.835571 
	C288.862091,212.170746 285.365540,209.109558 279.842285,209.015839 
	C275.066071,208.934799 270.287384,208.998993 264.994476,208.998993 
	C264.994476,206.079437 265.081024,203.786102 264.976837,201.501480 
	C264.744720,196.410889 261.523071,193.037170 257.008484,193.031281 
	C252.485565,193.025375 248.718521,196.444824 249.155899,201.463654 
	C249.659973,207.247910 247.857407,210.500443 241.379837,211.680923 
z"/>
<path fill="#FFA727" opacity="1.000000" stroke="none" 
	d="
M271.685181,170.732117 
	C258.195953,172.736008 246.198181,178.856781 235.485123,187.211456 
	C211.368881,206.018707 199.809280,231.166153 201.132645,261.577393 
	C202.921890,302.695221 233.693939,335.961792 271.580200,343.017273 
	C261.708496,346.542542 251.232727,345.679749 241.014771,343.421112 
	C202.775238,334.968506 179.020477,311.499359 170.647766,273.203796 
	C163.006180,238.252304 180.407349,200.012527 211.549377,181.707108 
	C230.157074,170.769440 249.948822,166.272247 271.685181,170.732117 
z"/>
<path fill="#FFD54F" opacity="1.000000" stroke="none" 
	d="
M341.986206,231.692474 
	C341.667847,231.233948 341.343109,230.440781 341.011292,229.313873 
	C341.329407,229.772720 341.654602,230.565262 341.986206,231.692474 
z"/>
<path fill="#FFD54F" opacity="1.000000" stroke="none" 
	d="
M341.230164,284.778259 
	C341.186859,284.169586 341.368378,283.318512 341.769806,282.220947 
	C341.811462,282.828247 341.633240,283.682068 341.230164,284.778259 
z"/>
<path fill="#EEEDEC" opacity="1.000000" stroke="none" 
	d="
M241.721313,211.508499 
	C247.857407,210.500443 249.659973,207.247910 249.155899,201.463654 
	C248.718521,196.444824 252.485565,193.025375 257.008484,193.031281 
	C261.523071,193.037170 264.744720,196.410889 264.976837,201.501480 
	C265.081024,203.786102 264.994476,206.079437 264.994476,208.998993 
	C270.287384,208.998993 275.066071,208.934799 279.842285,209.015839 
	C285.365540,209.109558 288.862091,212.170746 288.961426,216.835571 
	C289.059845,221.457794 285.640411,224.832672 280.135345,224.947189 
	C271.313293,225.130722 262.483734,224.924469 253.659348,225.037247 
	C247.275711,225.118835 242.545288,228.895615 241.282608,234.596924 
	C240.128311,239.808762 242.667450,245.139145 248.013794,247.779587 
	C249.834000,248.678558 252.115601,248.732010 254.209305,248.970734 
	C259.118225,249.530441 264.216370,249.315674 268.924866,250.580139 
	C282.344025,254.183838 288.406586,264.217010 288.810638,277.052338 
	C289.122070,286.946533 283.068787,299.674011 269.239105,303.294800 
	C265.583527,304.251892 264.750366,306.365204 264.938751,309.801575 
	C265.169678,314.013367 264.937134,318.213379 259.979858,320.097229 
	C254.690857,322.107208 249.696533,319.282318 249.099426,313.644318 
	C248.823212,311.036346 249.052307,308.374847 249.052307,305.001434 
	C243.835342,305.001434 239.071594,305.059479 234.309830,304.986542 
	C228.538055,304.898163 224.923096,301.658783 225.037262,296.816986 
	C225.147385,292.147461 228.632004,289.084686 234.169479,289.018829 
	C241.162537,288.935608 248.157318,288.996460 255.151352,288.996002 
	C267.093231,288.995209 272.776550,285.198608 272.926697,277.120697 
	C273.075745,269.102539 267.166748,264.931915 255.392166,265.040253 
	C249.333481,265.096008 243.574951,264.531647 238.365051,260.963226 
	C218.909561,247.637482 220.419952,222.470078 241.721313,211.508499 
z"/>
</svg>